<?xml version="1.0" encoding="UTF-8"?>
<svg width="77px" height="75px" viewBox="0 0 77 75" version="1.1" xmlns="http://www.w3.org/2000/svg" xmlns:xlink="http://www.w3.org/1999/xlink">
    <!-- Generator: Sketch 49.3 (51167) - http://www.bohemiancoding.com/sketch -->
    <title>Logo</title>
    <desc>Created with Sketch.</desc>
    <defs></defs>
    <g id="Page-2" stroke="none" stroke-width="1" fill="none" fill-rule="evenodd">
        <g id="01-1_Quel-Gabi" transform="translate(-40.000000, -38.000000)" fill="#CC0033">
            <g id="Logo" transform="translate(40.000000, 38.000000)">
                <path d="M14.598658,40.8489601 C13.9117041,40.5122546 13.3215211,40.07988 12.8125779,39.5754429 C9.08032738,35.8679547 9.88914095,28.2939439 10.6202989,26.6153861 C10.9954354,25.7580916 11.8639841,25.9133985 12.7385063,26.3743497 C14.0765731,27.0763372 15.0717602,28.3262478 15.57473,29.7935881 C15.6117657,29.9004393 15.6464121,30.0122603 15.6786691,30.1215965 C17.3870936,36.0344438 17.1397902,38.8076052 16.5890323,40.1022442 C16.2545157,40.8887187 15.3513206,41.2179695 14.598658,40.8489601" id="Fill-3"></path>
                <path d="M41.4116994,32.072807 C40.4949861,32.394064 39.4847558,31.9084716 39.1635985,30.9842397 C38.8424413,30.0612434 39.3321753,29.0492836 40.2488886,28.7280266 C41.1680628,28.4042983 42.1758322,28.8911263 42.49822,29.8141226 C42.8206077,30.7383545 42.3321041,31.7478431 41.4116994,32.072807 M34.3240908,24.0537361 C32.6001776,24.4058833 30.5095792,24.8890045 29.1954184,25.1991412 C28.4546649,25.3733613 27.947704,26.0652997 28.0043064,26.8301386 L28.3673003,31.6131622 C28.4054454,32.1123463 28.7832051,32.5139176 29.2754001,32.5744622 C30.9980828,32.7919286 35.0586919,33.7544642 38.3047182,38 C38.3047182,38 50.3671882,36.0823424 51.8991453,31.7898536 C53.4298718,27.4998361 37.0717696,23.4865938 34.3240908,24.0537361" id="Fill-5"></path>
                <path d="M74.8338975,25.5677144 C81.8480391,45.454649 71.2664351,67.20984 51.197747,74.1608888 C50.28876,74.4755555 49.3747924,74.7544366 48.4570891,75 C59.9912616,69.9492912 67.2930416,58.9137453 67.9094094,46.9576452 C66.2234254,56.3445844 59.608989,64.5814477 49.8803385,67.9514662 C47.6078712,68.7375159 45.3017838,69.2138349 43.0093935,69.398933 C42.5673519,69.4334846 42.1278007,69.4569303 41.6882495,69.4705042 C31.4465817,69.8049147 21.6693688,64.4025196 16.6537533,55.3240771 C16.638811,55.2919935 16.6201332,55.2599098 16.6039458,55.2278261 C21.2347984,63.312909 30.7567477,66.6101223 40.4131774,64.6209353 C29.6535116,63.4807313 24.7611696,58.1104198 21.1152604,47.9670466 C23.7936588,54.9859647 31.6507924,58.6472041 38.8454862,56.1557844 C38.8454862,56.1557844 42.6931158,55.1698287 51.197747,49.0862728 C53.1178262,47.7128452 63.299725,40.419982 67.0141195,37.6336393 C67.3391135,37.3893099 67.6142999,37.1807661 67.8309626,37.0129439 C67.9592169,36.9117569 68.0650579,36.8278458 68.1509758,36.7575086 C70.0000793,35.2471085 72.5788628,32.6187161 72.1542538,29.2844832 C71.7358708,25.9551863 69.4521968,25.8774451 68.4734794,25.59733 C68.1472402,25.503547 65.3679816,25.0839914 61.8229325,24.5694189 C61.294973,24.4929117 60.7495809,24.4139365 60.192982,24.3337273 C53.3282629,23.3477717 44.7115649,22.1532723 44.7115649,22.1532723 C44.7115649,22.1532723 42.7503945,18.4833949 38.9563079,17.5665426 C36.3339429,17.0087804 33.8771878,16.6632641 31.6134368,16.4732301 C26.3936105,16.0351647 22.1985735,16.4115307 19.3807141,16.8718079 C16.7869883,17.2962994 15.3550226,17.7911282 15.3550226,17.7911282 C3.54317331,21.8830291 -1.91821939,37.091919 2.7325562,52.2440455 C2.53332619,51.7467488 2.34405767,51.24575 2.16599585,50.7361134 C-4.84814575,30.8504127 5.73470344,9.09522175 25.799656,2.14664089 C45.8683441,-4.80440794 67.8210011,5.68201368 74.8338975,25.5677144" id="Fill-7"></path>
            </g>
        </g>
    </g>
</svg>