<svg xmlns="http://www.w3.org/2000/svg" viewBox="0 0 521.77 707.05"><defs><style>.cls-1{fill:#fff;}</style></defs><title>Logo_1</title><g id="Calque_2" data-name="Calque 2"><g id="Logo_Blanc" data-name="Logo Blanc"><path class="cls-1" d="M103.36,278.86a47.47,47.47,0,0,1-12.62-8.65c-26.37-25.18-20.66-76.61-15.48-88,2.65-5.82,8.78-4.76,15-1.64a41.35,41.35,0,0,1,20,23.22c.26.73.5,1.49.73,2.23,12.06,40.15,10.32,59,6.43,67.78A10.44,10.44,0,0,1,103.36,278.86Z"/><path class="cls-1" d="M235.46,162.79c-11.82,2.4-26.16,5.7-35.17,7.81a10.65,10.65,0,0,0-8.17,11.15l2.49,32.66a7.12,7.12,0,0,0,6.22,6.56c11.82,1.48,39.66,8.06,61.92,37,0,0,82.72-13.09,93.22-42.42S254.3,158.92,235.46,162.79Zm48.6,54.76a12.09,12.09,0,1,1,7.45-15.42A12.12,12.12,0,0,1,284.06,217.55Z"/><path class="cls-1" d="M507.09,174.83c47.53,136-24.18,284.74-160.17,332.27q-9.24,3.23-18.57,5.73c78.15-34.53,127.64-110,131.81-191.74A186.88,186.88,0,0,1,291.45,474.53c-3,.24-6,.41-9,.5a186.84,186.84,0,0,1-169.63-96.73c-.11-.22-.23-.44-.34-.66,31.38,55.28,95.9,77.83,161.33,64.23-72.91-7.8-106.06-44.52-130.76-113.87a95,95,0,0,0,120.14,56s26.08-6.74,83.7-48.34c13-9.39,82-59.26,107.18-78.31,2.21-1.68,4.07-3.1,5.54-4.25.87-.69,1.59-1.27,2.17-1.74,12.53-10.34,30-28.31,27.12-51.1S470.62,177,464,175c-2.21-.65-21-3.51-45.07-7l-11-1.61C361.37,159.66,303,151.49,303,151.49s-13.28-25.1-39-31.37a399.94,399.94,0,0,0-49.76-7.47c-35.37-3-63.79-.42-82.89,2.73-17.57,2.9-27.27,6.28-27.27,6.28-80,28-117,132-85.54,235.58-1.35-3.4-2.63-6.83-3.85-10.31C-32.85,211,38.86,62.2,174.83,14.68S459.57,38.86,507.09,174.83Z"/><path class="cls-1" d="M120.54,630.88h20.2v57.44a78.39,78.39,0,0,1-25.46,13.89A95.22,95.22,0,0,1,85,707q-22.31,0-40.19-9.78A72.52,72.52,0,0,1,16.7,670.33Q6.49,653.18,6.49,631.72A74.59,74.59,0,0,1,16.7,593a71.4,71.4,0,0,1,28.2-26.93q18-9.68,40.5-9.68a85.46,85.46,0,0,1,32.09,5.79A65.56,65.56,0,0,1,142,579.12l-13,13q-17.67-17-42.71-17A62.2,62.2,0,0,0,56,582.38a53.2,53.2,0,0,0-20.94,20.2,59.44,59.44,0,0,0,0,58.07A53.94,53.94,0,0,0,56,681a61,61,0,0,0,30,7.36q19.78,0,34.51-9.47Z"/><path class="cls-1" d="M274.77,668.54H196.5l-16.2,36.82H158.62l66.7-147.29h20.83l66.91,147.29H291Zm-7.37-16.83-31.77-72.17-31.77,72.17Z"/><path class="cls-1" d="M454.26,641.93q7.36,9.37,7.36,23.67,0,19.15-14.41,29.46t-42,10.31H335V558.08H401q25.25,0,39,10.1t13.78,28q0,11.58-5.37,20A35,35,0,0,1,434.06,629Q446.89,632.57,454.26,641.93ZM356,575.12v47.13h43.14q16.2,0,24.93-6t8.73-17.57q0-11.57-8.73-17.57t-24.93-6Zm75.33,107.31q9-5.89,9-18.52,0-24.62-36-24.62H356v49h48.4Q422.27,688.32,431.32,682.43Z"/><path class="cls-1" d="M494.23,558.08h21V705.37h-21Z"/></g></g></svg>