<?xml version="1.0" encoding="UTF-8"?>
<svg width="29px" height="29px" viewBox="0 0 29 29" version="1.1" xmlns="http://www.w3.org/2000/svg" xmlns:xlink="http://www.w3.org/1999/xlink">
    <!-- Generator: Sketch 49.3 (51167) - http://www.bohemiancoding.com/sketch -->
    <title>Aide Copy</title>
    <desc>Created with Sketch.</desc>
    <defs>
        <polygon id="path-1" points="0 0.0930708661 27.51636 0.0930708661 27.51636 28.1101417 0 28.1101417"></polygon>
    </defs>
    <g id="Mobile" stroke="none" stroke-width="1" fill="none" fill-rule="evenodd">
        <g id="04_Plus" transform="translate(-31.000000, -394.000000)">
            <g id="Picto/Aide" transform="translate(31.000000, 393.000000)">
                <g id="Group-3" stroke-width="1" transform="translate(0.696000, 0.944882)">
                    <mask id="mask-2" fill="white">
                        <use xlink:href="#path-1"></use>
                    </mask>
                    <g id="Clip-2"></g>
                    <path d="M13.7581336,1.74651969 C7.0672536,1.74651969 1.6238376,7.28896063 1.6238376,14.1015591 C1.6238376,20.9143937 7.0672536,26.4565984 13.7581336,26.4565984 C20.4490136,26.4565984 25.8924296,20.9143937 25.8924296,14.1015591 C25.8924296,7.28896063 20.4490136,1.74651969 13.7581336,1.74651969 M13.7581336,28.1101417 C6.1719656,28.1101417 -0.0001624,21.8259685 -0.0001624,14.1015591 C-0.0001624,6.37738583 6.1719656,0.092976378 13.7581336,0.092976378 C21.3443016,0.092976378 27.5164296,6.37738583 27.5164296,14.1015591 C27.5164296,21.8259685 21.3443016,28.1101417 13.7581336,28.1101417" id="Fill-1" fill="#CC0033" mask="url(#mask-2)"></path>
                </g>
                <path d="M13.3382625,21.9685039 L15.4689768,21.9685039 L15.4689768,19.7806112 L13.3382625,19.7806112 L13.3382625,21.9685039 Z M10.4875472,10.4171217 C10.6856512,9.83906717 10.9704691,9.33655516 11.3417701,8.90934892 C11.7128405,8.48237948 12.1671653,8.15037108 12.7047446,7.91379733 C13.2423239,7.67722359 13.8437854,7.55905512 14.5093597,7.55905512 C15.1108212,7.55905512 15.657856,7.64762227 16.150464,7.82499337 C16.6430721,8.00260129 17.0687998,8.25883032 17.4274166,8.59391726 C17.7853416,8.92900419 18.063702,9.3396337 18.262498,9.82580578 C18.460602,10.3122147 18.56,10.870614 18.56,11.5012405 C18.56,11.9087914 18.5120307,12.2734797 18.416092,12.5953053 C18.3199228,12.9176044 18.1951564,13.2098286 18.0415623,13.4724516 C17.8881989,13.7357849 17.7120039,13.9785157 17.5136692,14.2018281 C17.3151038,14.4256141 17.1135404,14.6425325 16.9089789,14.8525835 C16.7041868,15.0496099 16.5026234,15.2499516 16.3040581,15.4538455 C16.1057234,15.6575026 15.9267609,15.874421 15.7667095,16.1043641 C15.6064273,16.3340703 15.4786629,16.5841423 15.3827243,16.8533959 C15.2867856,17.1226495 15.2388163,17.4283719 15.2388163,17.7698527 L15.2388163,18.5387766 L13.6069368,18.5387766 L13.6069368,17.6121369 C13.6325359,17.0603683 13.7317032,16.5905362 13.9046695,16.2028773 C14.0774052,15.8152184 14.2884241,15.4704222 14.5379568,15.1680151 C14.7874895,14.8656081 15.0499371,14.5864084 15.3250688,14.3301794 C15.6002006,14.0737136 15.8561907,13.8046968 16.0930392,13.5217082 C16.3298878,13.23943 16.5183057,12.9275505 16.6594462,12.5853592 C16.8001255,12.2438784 16.8577809,11.8299335 16.8321819,11.3435246 C16.7809839,10.6210156 16.5538215,10.0559856 16.150464,9.64843467 C15.7473372,9.24112051 15.2003025,9.03746343 14.5093597,9.03746343 C14.0485775,9.03746343 13.6516775,9.12295204 13.3191209,9.29369245 C12.9861031,9.46466968 12.7077427,9.69461273 12.4840396,9.98352161 C12.2598752,10.2729041 12.096595,10.6143849 11.9944296,11.0084377 C11.8920336,11.4027273 11.8408355,11.8299335 11.8408355,12.2898196 L10.2091867,12.2898196 C10.1962719,11.6196458 10.2887512,10.9954131 10.4875472,10.4171217 Z" id="Fill-4" fill="#CC0033"></path>
            </g>
        </g>
    </g>
</svg>