<?xml version="1.0" encoding="UTF-8"?>
<svg width="29px" height="29px" viewBox="0 0 29 29" version="1.1" xmlns="http://www.w3.org/2000/svg" xmlns:xlink="http://www.w3.org/1999/xlink">
    <!-- Generator: Sketch 49.3 (51167) - http://www.bohemiancoding.com/sketch -->
    <title>Aide</title>
    <desc>Created with Sketch.</desc>
    <defs>
        <polygon id="path-1" points="0 0.0930708661 27.51636 0.0930708661 27.51636 28.1101417 0 28.1101417"></polygon>
    </defs>
    <g id="Mobile" stroke="none" stroke-width="1" fill="none" fill-rule="evenodd">
        <g id="04_Plus" transform="translate(-31.000000, -328.000000)">
            <g id="Picto/A-propos" transform="translate(31.000000, 327.000000)">
                <g id="Group-3" stroke-width="1" transform="translate(0.696000, 0.944882)">
                    <mask id="mask-2" fill="white">
                        <use xlink:href="#path-1"></use>
                    </mask>
                    <g id="Clip-2"></g>
                    <path d="M13.7581336,1.74651969 C7.0672536,1.74651969 1.6238376,7.28896063 1.6238376,14.1015591 C1.6238376,20.9143937 7.0672536,26.4565984 13.7581336,26.4565984 C20.4490136,26.4565984 25.8924296,20.9143937 25.8924296,14.1015591 C25.8924296,7.28896063 20.4490136,1.74651969 13.7581336,1.74651969 M13.7581336,28.1101417 C6.1719656,28.1101417 -0.0001624,21.8259685 -0.0001624,14.1015591 C-0.0001624,6.37738583 6.1719656,0.092976378 13.7581336,0.092976378 C21.3443016,0.092976378 27.5164296,6.37738583 27.5164296,14.1015591 C27.5164296,21.8259685 21.3443016,28.1101417 13.7581336,28.1101417" id="Fill-1" fill="#CC0033" mask="url(#mask-2)"></path>
                </g>
                <path d="M13.4916007,11.5476447 L15.3575564,11.5476447 C14.5892217,15.0345209 13.9526015,17.6273264 13.9526015,19.4601716 C13.9526015,20.1083729 14.1940782,20.2201318 14.3916499,20.2201318 C14.9624128,20.2201318 15.6868427,18.9684326 16.6527491,16.397979 C16.7625112,16.397979 17.2674168,16.5544414 17.2674168,16.688552 L17.2674168,16.7109038 C16.3015104,19.2590056 15.5331757,21.851811 13.7330773,21.851811 C12.5476467,21.851811 12.1525032,20.7342225 12.1525032,19.1919503 C12.1525032,16.7109038 13.1184096,13.1569722 13.4916007,11.5476447 Z M14.7867935,10.251242 C14.0843161,10.251242 13.7550298,9.71479951 13.7550298,9.1113017 C13.7550298,8.30663795 14.3257927,7.34551181 15.2916991,7.34551181 C16.0161289,7.34551181 16.3234628,7.88195431 16.3234628,8.50780389 C16.3234628,9.31246764 15.7526999,10.251242 14.7867935,10.251242 Z" id="i" fill="#CC0033"></path>
            </g>
        </g>
    </g>
</svg>