<?xml version="1.0" encoding="UTF-8"?>
<svg width="21px" height="27px" viewBox="0 0 21 27" version="1.1" xmlns="http://www.w3.org/2000/svg" xmlns:xlink="http://www.w3.org/1999/xlink">
    <!-- Generator: Sketch 49.3 (51167) - http://www.bohemiancoding.com/sketch -->
    <title>confidentialité</title>
    <desc>Created with Sketch.</desc>
    <defs></defs>
    <g id="Mobile" stroke="none" stroke-width="1" fill="none" fill-rule="evenodd">
        <g id="04_Plus" transform="translate(-33.000000, -261.000000)">
            <g id="Picto/confidentialité" transform="translate(33.000000, 260.000000)">
                <g id="Group-2" transform="translate(0.656250, 1.060606)">
                    <path d="M4.37731875,9.74601515 L2.62731875,9.74601515 L2.62731875,6.95662121 C2.62731875,3.17301515 5.8016,0.0949242424 9.70344375,0.0949242424 C13.6052875,0.0949242424 16.77935,3.17301515 16.77935,6.95662121 L16.77935,9.74601515 L15.02935,9.74601515 L15.02935,6.95662121 C15.02935,4.10868182 12.6401625,1.79189394 9.70344375,1.79189394 C6.76650625,1.79189394 4.37731875,4.10868182 4.37731875,6.95662121 L4.37731875,9.74601515 Z" id="Fill-32" fill="#CC0033"></path>
                    <path d="M1.6253125,25.8800606 C0.74440625,25.8800606 0.03040625,25.187697 0.03040625,24.3334848 L0.03040625,12.8233636 C0.03040625,11.9693636 0.74440625,11.2767879 1.6253125,11.2767879 L17.78175,11.2767879 C18.6624375,11.2767879 19.3766563,11.9693636 19.3766563,12.8233636 L19.3766563,24.3334848 C19.3766563,25.187697 18.6624375,25.8800606 17.78175,25.8800606 L1.6253125,25.8800606 Z" id="Fill-34" stroke="#D0021B" stroke-width="2"></path>
                </g>
            </g>
        </g>
    </g>
</svg>