<?xml version="1.0" encoding="UTF-8"?>
<svg width="42px" height="27px" viewBox="0 0 42 27" version="1.1" xmlns="http://www.w3.org/2000/svg" xmlns:xlink="http://www.w3.org/1999/xlink">
    <!-- Generator: Sketch 49.3 (51167) - http://www.bohemiancoding.com/sketch -->
    <title>Group 3</title>
    <desc>Created with Sketch.</desc>
    <defs></defs>
    <g id="Symbols" stroke="none" stroke-width="1" fill="none" fill-rule="evenodd" stroke-linecap="round" stroke-linejoin="round">
        <g id="Nav--Home" transform="translate(-121.000000, -11.000000)" stroke="#CC0033">
            <g id="Group-3" transform="translate(121.000000, 12.000000)">
                <path d="M36.3409091,8.38636364 C36.3409091,11.9889698 33.6289783,14.9090909 30.2834431,14.9090909 C26.9392035,14.9090909 24.2272727,11.9889698 24.2272727,8.38636364 C24.2272727,4.78375749 26.9392035,1.86363636 30.2834431,1.86363636 C33.6289783,1.86363636 36.3409091,4.78375749 36.3409091,8.38636364 Z" id="Stroke-14"></path>
                <path d="M24.2272727,17.9676606 C24.9138606,17.7976124 25.6388769,17.7045455 26.3869503,17.7045455 L32.9479637,17.7045455 C37.3928517,17.7045455 41,20.9389082 41,24.929296 L41,25.1590909 L26.9159816,25.1590909" id="Stroke-16"></path>
                <path d="M18.6363636,6.98863636 C18.6363636,10.8484542 15.7167091,13.9772727 12.1142733,13.9772727 C8.5105636,13.9772727 5.59090909,10.8484542 5.59090909,6.98863636 C5.59090909,3.12999564 8.5105636,0 12.1142733,0 C15.7167091,0 18.6363636,3.12999564 18.6363636,6.98863636 Z" id="Stroke-18"></path>
                <path d="M0.725543325,21.8939906 C2.12601067,18.8849534 5.40328598,16.7727273 9.2243943,16.7727273 L15.9372925,16.7727273 C21.030373,16.7727273 25.1590909,20.5275337 25.1590909,25.1590909 L0,25.1590909" id="Stroke-20"></path>
            </g>
        </g>
    </g>
</svg>