<?xml version="1.0" encoding="UTF-8"?>
<svg width="25px" height="24px" viewBox="0 0 25 24" version="1.1" xmlns="http://www.w3.org/2000/svg" xmlns:xlink="http://www.w3.org/1999/xlink">
    <!-- Generator: Sketch 49.3 (51167) - http://www.bohemiancoding.com/sketch -->
    <title>Fill 1</title>
    <desc>Created with Sketch.</desc>
    <defs></defs>
    <g id="Symbols" stroke="none" stroke-width="1" fill="none" fill-rule="evenodd">
        <g id="Nav--Home" transform="translate(-34.000000, -14.000000)" fill="#CC0033">
            <path d="M58.7997577,23.1076207 L47.5048969,14.3769634 C46.9265879,13.8743455 46.0737173,13.8743455 45.4954083,14.3769634 L34.1994665,23.1076207 C33.7984335,23.4569346 34.0427285,24.1238066 34.5713137,24.1238066 L35.4133749,24.1238066 L35.4133749,36.4363002 C35.4133749,37.2991822 36.1051837,38 36.9569734,38 L41.3045598,38 C42.1574304,38 42.8481584,37.2991822 42.8481584,36.4363002 L42.8481584,32.5106252 C42.8481584,30.4683982 44.4836378,28.811621 46.4996121,28.811621 C48.5166674,28.811621 50.1521468,30.4683982 50.1521468,32.5106252 L50.1521468,36.4363002 C50.1521468,37.2991822 50.8428747,38 51.6946644,38 L56.0433317,38 C56.8951214,38 57.5858493,37.2991822 57.5858493,36.4363002 L57.5858493,24.1238066 L58.4289914,24.1238066 C58.9575766,24.1238066 59.2018716,23.4569346 58.7997577,23.1076207" id="Fill-1"></path>
        </g>
    </g>
</svg>