<?xml version="1.0" encoding="UTF-8"?>
<svg width="26px" height="25px" viewBox="0 0 26 25" version="1.1" xmlns="http://www.w3.org/2000/svg" xmlns:xlink="http://www.w3.org/1999/xlink">
    <!-- Generator: Sketch 49.3 (51167) - http://www.bohemiancoding.com/sketch -->
    <title>Page 1</title>
    <desc>Created with Sketch.</desc>
    <defs></defs>
    <g id="Symbols" stroke="none" stroke-width="1" fill="none" fill-rule="evenodd" stroke-linecap="round" stroke-linejoin="round">
        <g id="Nav-Mon-profil" transform="translate(-33.000000, -14.000000)" stroke="#CC0033">
            <path d="M35.3508344,37.8245789 L41.038168,37.8245789 C41.858827,37.8245789 42.5253521,37.1580538 42.5253521,36.3373948 L42.5253521,32.6038128 C42.5253521,30.6615171 44.1000176,29.0858101 46.0433549,29.0858101 C47.9866921,29.0858101 49.5613576,30.6615171 49.5613576,32.6038128 L49.5613576,36.3373948 C49.5613576,37.1580538 50.2268412,37.8245789 51.0475003,37.8245789 L55.2372353,37.8245789 C56.0589358,37.8245789 56.723378,37.1580538 56.723378,36.3373948 L56.723378,24.6273821 L57.5367469,24.6273821 C58.0460137,24.6273821 58.2813804,23.9941833 57.8939627,23.6609207 L47.0108577,15.3585176 C46.4536844,14.8804941 45.6319839,14.8804941 45.075852,15.3585176 L34.1927471,23.6609207 C33.8063708,23.9941833 34.0396546,24.6273821 34.5489214,24.6273821 L35.3622903,24.6273821 L35.3622903,35.3105296" id="Page-1"></path>
        </g>
    </g>
</svg>