<?xml version="1.0" encoding="UTF-8"?>
<svg width="32px" height="31px" viewBox="0 0 32 31" version="1.1" xmlns="http://www.w3.org/2000/svg" xmlns:xlink="http://www.w3.org/1999/xlink">
    <!-- Generator: Sketch 49.3 (51167) - http://www.bohemiancoding.com/sketch -->
    <title>Instagram</title>
    <desc>Created with Sketch.</desc>
    <defs></defs>
    <g id="Mobile" stroke="none" stroke-width="1" fill="none" fill-rule="evenodd">
        <g id="04_Plus" transform="translate(-254.000000, -526.000000)" fill="#CC0033">
            <g id="Instagram" transform="translate(254.000000, 526.000000)">
                <path d="M16.0003215,0 C11.6546583,0 11.1100842,0.017440225 9.40306604,0.0928069118 C7.70054851,0.168796464 6.53746157,0.430399839 5.51968014,0.813461925 C4.46782263,1.20960418 3.5754154,1.73966245 2.68557996,2.60170786 C1.79638745,3.4631304 1.24924153,4.3270444 0.840328705,5.3466747 C0.444917723,6.33267028 0.174880955,7.45943339 0.0970846477,9.10940325 C0.0192883406,10.7624874 0,11.2900542 0,15.5 C0,19.7099458 0.0192883406,20.2368897 0.0970846477,21.8905967 C0.174880955,23.5405666 0.444917723,24.6673297 0.840328705,25.6533253 C1.24924153,26.6723327 1.79638745,27.5368696 2.68557996,28.3982921 C3.5754154,29.2603376 4.46782263,29.789773 5.51968014,30.1865381 C6.53746157,30.5696002 7.70054851,30.8312035 9.40306604,30.9065702 C11.1100842,30.9819369 11.6546583,31 16.0003215,31 C20.3453417,31 20.8899158,30.9819369 22.596934,30.9065702 C24.2994515,30.8312035 25.4631814,30.5696002 26.4809628,30.1865381 C27.5328203,29.789773 28.4252275,29.2603376 29.31442,28.3982921 C30.2042555,27.5368696 30.7507585,26.6723327 31.1596713,25.6533253 C31.5550823,24.6673297 31.825762,23.5405666 31.9035583,21.8905967 C31.9813546,20.2368897 32,19.7099458 32,15.5 C32,11.2900542 31.9813546,10.7624874 31.9035583,9.10940325 C31.825762,7.45943339 31.5550823,6.33267028 31.1596713,5.3466747 C30.7507585,4.3270444 30.2042555,3.4631304 29.31442,2.60170786 C28.4252275,1.73966245 27.5328203,1.20960418 26.4809628,0.813461925 C25.4631814,0.430399839 24.2994515,0.168796464 22.596934,0.0928069118 C20.8899158,0.017440225 20.3453417,0 16.0003215,0 M16.0003215,2.7923046 C20.2726889,2.7923046 20.7786864,2.8084991 22.4657732,2.88324292 C24.0249141,2.95175809 24.8729581,3.20464135 25.4368206,3.41641551 C26.1832794,3.69795057 26.7162806,4.03429777 27.2762854,4.57619048 C27.8356473,5.11870605 28.1828374,5.63506128 28.4728054,6.35820776 C28.6920496,6.90446052 28.9530851,7.72539683 29.023809,9.23646775 C29.1009624,10.870866 29.117036,11.3610609 29.117036,15.5 C29.117036,19.6383163 29.1009624,20.1285112 29.023809,21.7629094 C28.9530851,23.2746032 28.6920496,24.0955395 28.4728054,24.6417922 C28.1828374,25.3649387 27.8356473,25.881294 27.2762854,26.4238095 C26.7162806,26.9663251 26.1832794,27.3020494 25.4368206,27.5829616 C24.8729581,27.7953586 24.0249141,28.047619 22.4657732,28.1167571 C20.7786864,28.1915009 20.2726889,28.2070725 16.0003215,28.2070725 C11.7273111,28.2070725 11.2213136,28.1915009 9.5348697,28.1167571 C7.97508589,28.047619 7.1276848,27.7953586 6.56382231,27.5829616 C5.81736352,27.3020494 5.28436238,26.9663251 4.72435756,26.4238095 C4.16435274,25.881294 3.81780555,25.3649387 3.5278375,24.6417922 C3.30859336,24.0955395 3.04755781,23.2746032 2.97619095,21.7629094 C2.89968054,20.1285112 2.88360692,19.6383163 2.88360692,15.5 C2.88360692,11.3610609 2.89968054,10.870866 2.97619095,9.23646775 C3.04755781,7.72539683 3.30859336,6.90446052 3.5278375,6.35820776 C3.81780555,5.63506128 4.16435274,5.11870605 4.72435756,4.57619048 C5.28436238,4.03429777 5.81736352,3.69795057 6.56382231,3.41641551 C7.1276848,3.20464135 7.97508589,2.95175809 9.5348697,2.88324292 C11.2219566,2.8084991 11.727954,2.7923046 16.0003215,2.7923046" id="Fill-5"></path>
                <path d="M16.000313,20.1927848 C13.1323708,20.1927848 10.8072152,17.8676292 10.8072152,14.999687 C10.8072152,12.1317447 13.1323708,9.80658919 16.000313,9.80658919 C18.8682553,9.80658919 21.1934108,12.1317447 21.1934108,14.999687 C21.1934108,17.8676292 18.8682553,20.1927848 16.000313,20.1927848 M16.000313,7 C11.581641,7 8,10.581015 8,14.999687 C8,19.418359 11.581641,23 16.000313,23 C20.418985,23 24,19.418359 24,14.999687 C24,10.581015 20.418985,7 16.000313,7" id="Fill-7"></path>
                <path d="M27,6.99966505 C27,8.10433763 26.1046375,9 25.0003348,9 C23.8960321,9 23,8.10433763 23,6.99966505 C23,5.89566237 23.8960321,5 25.0003348,5 C26.1046375,5 27,5.89566237 27,6.99966505" id="Fill-9"></path>
            </g>
        </g>
    </g>
</svg>