<?xml version="1.0" encoding="UTF-8"?>
<svg width="27px" height="27px" viewBox="0 0 27 27" version="1.1" xmlns="http://www.w3.org/2000/svg" xmlns:xlink="http://www.w3.org/1999/xlink">
    <!-- Generator: Sketch 49.3 (51167) - http://www.bohemiancoding.com/sketch -->
    <title>Notification &amp; Push</title>
    <desc>Created with Sketch.</desc>
    <defs></defs>
    <g id="Mobile" stroke="none" stroke-width="1" fill="none" fill-rule="evenodd">
        <g id="04_Plus" transform="translate(-32.000000, -132.000000)" fill="#CC0033">
            <g id="Picto/Notification-&amp;-Push" transform="translate(31.000000, 131.000000)">
                <g id="Group" transform="translate(1.288889, 1.279412)">
                    <path d="M26.3521281,4.88257647 C26.3521281,7.49257647 24.2205207,9.60851029 21.5911874,9.60851029 C18.9618541,9.60851029 16.8302467,7.49257647 16.8302467,4.88257647 C16.8302467,2.27236324 18.9618541,0.156429412 21.5911874,0.156429412 C24.2205207,0.156429412 26.3521281,2.27236324 26.3521281,4.88257647" id="Fill-10"></path>
                    <path d="M20.7319067,10.9619147 L20.7319067,21.4697235 C20.7319067,22.9122603 19.5497807,24.0856941 18.0965585,24.0856941 L4.56301037,24.0856941 C3.11021778,24.0856941 1.92809185,22.9122603 1.92809185,21.4697235 L1.92809185,8.03568676 C1.92809185,6.59336324 3.11021778,5.42014265 4.56301037,5.42014265 L15.4309215,5.42014265 C15.4154548,5.24273088 15.406003,5.06382647 15.406003,4.88257647 C15.406003,4.48276029 15.4457437,4.09253971 15.5192104,3.71426029 L4.56301037,3.71426029 C2.16266963,3.71426029 0.209573333,5.65278235 0.209573333,8.03568676 L0.209573333,21.4697235 C0.209573333,23.8528412 2.16266963,25.7915765 4.56301037,25.7915765 L18.0965585,25.7915765 C20.4973289,25.7915765 22.4504252,23.8528412 22.4504252,21.4697235 L22.4504252,10.9619147 C22.1694474,11.0005103 21.8828844,11.0222603 21.5911659,11.0222603 C21.2994474,11.0222603 21.0128844,11.0005103 20.7319067,10.9619147 Z" id="Fill-12"></path>
                </g>
            </g>
        </g>
    </g>
</svg>