<?xml version="1.0" encoding="iso-8859-1"?>
<svg xmlns="http://www.w3.org/2000/svg" xmlns:xlink="http://www.w3.org/1999/xlink" version="1.1" viewBox="0 0 60 60" enable-background="new 0 0 60 60" width="512px" height="512px">
  <g>
    <g>
      <path d="m54,20c-0.552,0-1,0.448-1,1v35c0,1.105-0.896,2-2,2h-47c-1.105,0-2-0.895-2-2v-47c0-1.105 0.895-2 2-2h35c0.552,0 1-0.448 1-1s-0.448-1-1-1h-35c-2.209,0-4,1.791-4,4v47c0,2.209 1.791,4 4,4h47c2.209,0 4-1.791 4-4v-35c0-0.552-0.448-1-1-1z" fill="#cc0033"/>
    </g>
  </g>
  <g>
    <g>
      <path d="m52,0c-4.418,0-8,3.582-8,8s3.582,8 8,8 8-3.582 8-8-3.582-8-8-8zm0,14c-3.314,0-6-2.686-6-6s2.686-6 6-6c3.314,0 6,2.686 6,6s-2.686,6-6,6z" fill="#cc0033"/>
    </g>
  </g>
</svg>
