<?xml version="1.0" encoding="UTF-8"?>
<svg width="26px" height="26px" viewBox="0 0 26 26" version="1.1" xmlns="http://www.w3.org/2000/svg" xmlns:xlink="http://www.w3.org/1999/xlink">
    <!-- Generator: Sketch 49.3 (51167) - http://www.bohemiancoding.com/sketch -->
    <title>parametre</title>
    <desc>Created with Sketch.</desc>
    <defs></defs>
    <g id="Mobile" stroke="none" stroke-width="1" fill="none" fill-rule="evenodd">
        <g id="04_Plus" transform="translate(-32.000000, -198.000000)">
            <g id="Picto/parametre" transform="translate(31.000000, 197.000000)">
                <g id="Group-40" transform="translate(1.050725, 1.696970)">
                    <path d="M24.7061717,4.62755152 L0.892128261,4.62755152 C0.418671739,4.62755152 0.0347369565,4.23979394 0.0347369565,3.76188485 C0.0347369565,3.28397576 0.418671739,2.8964303 0.892128261,2.8964303 L24.7061717,2.8964303 C25.1796283,2.8964303 25.563563,3.28397576 25.563563,3.76188485 C25.563563,4.23979394 25.1796283,4.62755152 24.7061717,4.62755152" id="Fill-14" fill="#CC0033"></path>
                    <path d="M24.7061717,13.2089364 L0.892128261,13.2089364 C0.418671739,13.2089364 0.0347369565,12.8213909 0.0347369565,12.3432697 C0.0347369565,11.8653606 0.418671739,11.4778152 0.892128261,11.4778152 L24.7061717,11.4778152 C25.1796283,11.4778152 25.563563,11.8653606 25.563563,12.3432697 C25.563563,12.8213909 25.1796283,13.2089364 24.7061717,13.2089364" id="Fill-16" fill="#CC0033"></path>
                    <path d="M24.7061717,21.7905121 L0.892128261,21.7905121 C0.418671739,21.7905121 0.0347369565,21.4029667 0.0347369565,20.9250576 C0.0347369565,20.4469364 0.418671739,20.0593909 0.892128261,20.0593909 L24.7061717,20.0593909 C25.1796283,20.0593909 25.563563,20.4469364 25.563563,20.9250576 C25.563563,21.4029667 25.1796283,21.7905121 24.7061717,21.7905121" id="Fill-18" fill="#CC0033"></path>
                    <path d="M7.12582536,6.70421818 C5.51863696,6.70421818 4.21111522,5.38418788 4.21111522,3.76188485 C4.21111522,2.1393697 5.51863696,0.819763636 7.12582536,0.819763636 C8.73301377,0.819763636 10.0405355,2.1393697 10.0405355,3.76188485 C10.0405355,5.38418788 8.73301377,6.70421818 7.12582536,6.70421818" id="Fill-20" fill="#FFFFFF"></path>
                    <path d="M7.12582536,0.0777212121 C5.11347754,0.0777212121 3.47602826,1.7305697 3.47602826,3.76184242 C3.47602826,5.79332727 5.11347754,7.44596364 7.12582536,7.44596364 C9.13838333,7.44596364 10.7756225,5.79332727 10.7756225,3.76184242 C10.7756225,1.7305697 9.13838333,0.0777212121 7.12582536,0.0777212121 M7.12582536,1.56150909 C8.32974565,1.56150909 9.3056587,2.54681212 9.3056587,3.76184242 C9.3056587,4.97708485 8.32974565,5.96217576 7.12582536,5.96217576 C5.92190507,5.96217576 4.94599203,4.97708485 4.94599203,3.76184242 C4.94599203,2.54681212 5.92190507,1.56150909 7.12582536,1.56150909" id="Fill-22" fill="#CC0033"></path>
                    <path d="M20.394292,15.285603 C18.7871036,15.285603 17.4793717,13.9657848 17.4793717,12.3434818 C17.4793717,10.7209667 18.7871036,9.40114848 20.394292,9.40114848 C22.0012703,9.40114848 23.308792,10.7209667 23.308792,12.3434818 C23.308792,13.9657848 22.0012703,15.285603 20.394292,15.285603" id="Fill-24" fill="#FFFFFF"></path>
                    <path d="M20.394292,8.65929697 C18.3817341,8.65929697 16.7444949,10.3119333 16.7444949,12.3434182 C16.7444949,14.3746909 18.3817341,16.0273273 20.394292,16.0273273 C22.4066399,16.0273273 24.043879,14.3746909 24.043879,12.3434182 C24.043879,10.3119333 22.4066399,8.65929697 20.394292,8.65929697 M20.394292,10.1430848 C21.5982123,10.1430848 22.5739152,11.1281758 22.5739152,12.3434182 C22.5739152,13.5586606 21.5982123,14.5435394 20.394292,14.5435394 C19.1903717,14.5435394 18.2144587,13.5586606 18.2144587,12.3434182 C18.2144587,11.1281758 19.1903717,10.1430848 20.394292,10.1430848" id="Fill-26" fill="#CC0033"></path>
                    <path d="M9.3056587,23.8672 C7.69847029,23.8672 6.39094855,22.5473818 6.39094855,20.9248667 C6.39094855,19.3023515 7.69847029,17.9827455 9.3056587,17.9827455 C10.912637,17.9827455 12.2203688,19.3023515 12.2203688,20.9248667 C12.2203688,22.5473818 10.912637,23.8672 9.3056587,23.8672" id="Fill-28" fill="#FFFFFF"></path>
                    <path d="M9.3056587,17.2408939 C7.29310072,17.2408939 5.65586159,18.8935303 5.65586159,20.924803 C5.65586159,22.9562879 7.29310072,24.6089242 9.3056587,24.6089242 C11.3180065,24.6089242 12.9554558,22.9562879 12.9554558,20.924803 C12.9554558,18.8935303 11.3180065,17.2408939 9.3056587,17.2408939 M9.3056587,18.7246818 C10.509579,18.7246818 11.485492,19.7097727 11.485492,20.924803 C11.485492,22.1400455 10.509579,23.1251364 9.3056587,23.1251364 C8.10173841,23.1251364 7.12582536,22.1400455 7.12582536,20.924803 C7.12582536,19.7097727 8.10173841,18.7246818 9.3056587,18.7246818" id="Fill-30" fill="#CC0033"></path>
                </g>
            </g>
        </g>
    </g>
</svg>