<?xml version="1.0" encoding="UTF-8"?>
<svg width="39px" height="12px" viewBox="0 0 39 12" version="1.1" xmlns="http://www.w3.org/2000/svg" xmlns:xlink="http://www.w3.org/1999/xlink">
    <!-- Generator: Sketch 49.3 (51167) - http://www.bohemiancoding.com/sketch -->
    <title>Group 4</title>
    <desc>Created with Sketch.</desc>
    <defs></defs>
    <g id="Symbols" stroke="none" stroke-width="1" fill="none" fill-rule="evenodd" stroke-linecap="round" stroke-linejoin="round">
        <g id="Nav-Mes-gabi" transform="translate(-308.000000, -21.000000)" stroke="#CC0033">
            <g id="Group-4" transform="translate(309.000000, 22.000000)">
                <path d="M10.1168831,5.05916658 C10.1168831,7.85338096 7.85193093,10.1168831 5.05916658,10.1168831 C2.26495219,10.1168831 0,7.85338096 0,5.05916658 C0,2.26495219 2.26495219,0 5.05916658,0 C7.85193093,0 10.1168831,2.26495219 10.1168831,5.05916658 Z" id="Stroke-28"></path>
                <path d="M23.6883117,5.05916658 C23.6883117,7.85338096 21.4233595,10.1168831 18.6305951,10.1168831 C15.8363808,10.1168831 13.5714286,7.85338096 13.5714286,5.05916658 C13.5714286,2.26495219 15.8363808,0 18.6305951,0 C21.4233595,0 23.6883117,2.26495219 23.6883117,5.05916658 Z" id="Stroke-30"></path>
                <path d="M37.2597403,5.05916658 C37.2597403,7.85338096 34.9947881,10.1168831 32.2020237,10.1168831 C29.4078093,10.1168831 27.1428571,7.85338096 27.1428571,5.05916658 C27.1428571,2.26495219 29.4078093,0 32.2020237,0 C34.9947881,0 37.2597403,2.26495219 37.2597403,5.05916658 Z" id="Stroke-32"></path>
            </g>
        </g>
    </g>
</svg>