<?xml version="1.0" encoding="UTF-8"?>
<svg width="28px" height="22px" viewBox="0 0 28 22" version="1.1" xmlns="http://www.w3.org/2000/svg" xmlns:xlink="http://www.w3.org/1999/xlink">
    <!-- Generator: Sketch 49.3 (51167) - http://www.bohemiancoding.com/sketch -->
    <title>se deco copy</title>
    <desc>Created with Sketch.</desc>
    <defs>
        <polygon id="path-1" points="11.1538462 0.669902913 27.8846154 0.669902913 27.8846154 21.4368932 11.1538462 21.4368932"></polygon>
    </defs>
    <g id="Mobile" stroke="none" stroke-width="1" fill="none" fill-rule="evenodd">
        <g id="04_Plus" transform="translate(-31.000000, -463.000000)">
            <g id="Picto/se-deco" transform="translate(31.000000, 463.000000)">
                <path d="M15.2654885,7.83237087 L7.77166538,7.83237087 L7.77166538,5.79006019 C7.77166538,5.47855534 7.41429615,5.30326408 7.16824231,5.49396311 L0.787573077,10.4452155 C0.489319231,10.6765553 0.489319231,11.1276233 0.787573077,11.3589631 L7.16824231,16.3102155 C7.41429615,16.5009146 7.77166538,16.3256233 7.77166538,16.0141184 L7.77166538,13.9718078 L15.2654885,13.9718078 C15.6612269,13.9718078 15.9820115,13.6509243 15.9820115,13.254565 L15.9820115,8.54961359 C15.9820115,8.15347767 15.6612269,7.83237087 15.2654885,7.83237087" id="Fill-41" fill="#CC0033" fill-rule="evenodd"></path>
                <mask id="mask-2" fill="white">
                    <use xlink:href="#path-1"></use>
                </mask>
                <g id="Clip-44"></g>
                <path d="M21.422157,0.669902913 L15.2132619,0.669902913 C13.5344567,0.669902913 12.0905882,1.69566607 11.4735041,3.15427961 C11.2678094,3.64048413 11.1538462,4.17462713 11.1538462,4.73504603 L11.1538462,7.22985286 L12.7561417,7.22985286 L12.7561417,4.73504603 C12.7561417,4.31102113 12.863896,3.91166751 13.0533675,3.56326105 C13.469764,2.79624535 14.2819276,2.27453828 15.2132619,2.27453828 L21.3398391,2.27453828 L23.8254,2.27453828 C25.1801408,2.27453828 26.2823199,3.37832683 26.2823199,4.73504603 L26.2823199,7.48739683 L26.2823199,14.8825595 L26.2823199,17.3717501 C26.2823199,18.7284693 25.1801408,19.8322578 23.8251997,19.8322578 L21.0768623,19.8322578 L15.2132619,19.8322578 C14.2819276,19.8322578 13.469764,19.3107513 13.0533675,18.5435351 C12.863896,18.194928 12.7561417,17.795775 12.7561417,17.3717501 L12.7561417,14.8769433 L11.1538462,14.8769433 L11.1538462,17.3717501 C11.1538462,17.932169 11.2678094,18.4665126 11.4735041,18.9525165 C12.0905882,20.41113 13.5344567,21.4368932 15.2130616,21.4368932 L21.0768623,21.4368932 L23.8251997,21.4368932 C26.0636065,21.4368932 27.8846154,19.6132251 27.8846154,17.3717501 L27.8846154,14.9649976 L27.8846154,7.48739683 L27.8846154,4.73504603 C27.8846154,2.493571 26.0636065,0.669902913 23.8254,0.669902913 L21.422157,0.669902913 Z" id="Fill-43" fill="#CC0033" fill-rule="evenodd" mask="url(#mask-2)"></path>
            </g>
        </g>
    </g>
</svg>