<?xml version="1.0" encoding="UTF-8"?>
<svg width="39px" height="31px" viewBox="0 0 39 31" version="1.1" xmlns="http://www.w3.org/2000/svg" xmlns:xlink="http://www.w3.org/1999/xlink">
    <!-- Generator: Sketch 49.3 (51167) - http://www.bohemiancoding.com/sketch -->
    <title>Twitter</title>
    <desc>Created with Sketch.</desc>
    <defs></defs>
    <g id="Mobile" stroke="none" stroke-width="1" fill="none" fill-rule="evenodd">
        <g id="04_Plus" transform="translate(-162.000000, -526.000000)" fill="#CC0033">
            <path d="M174.26528,556.542169 C188.983095,556.542169 197.031209,544.792819 197.031209,534.604787 C197.031209,534.270845 197.024057,533.938784 197.008453,533.607975 C198.570871,532.519689 199.929129,531.161368 201,529.615715 C199.56632,530.229089 198.023407,530.643227 196.405072,530.829307 C198.057217,529.875099 199.325098,528.364531 199.923277,526.563879 C198.377113,527.447288 196.66515,528.09011 194.842653,528.435955 C193.382315,526.937291 191.302991,526 189.001951,526 C184.582575,526 180.99935,529.453443 180.99935,533.710099 C180.99935,534.314703 181.069571,534.903016 181.206762,535.467521 C174.556567,535.145484 168.659948,532.077358 164.714564,527.412203 C164.026008,528.551237 163.630689,529.875099 163.630689,531.286675 C163.630689,533.962592 165.042913,536.323363 167.191157,537.705492 C165.879064,537.666021 164.645644,537.318296 163.56697,536.74126 C163.56502,536.772587 163.56502,536.805166 163.56502,536.838999 C163.56502,540.573755 166.323797,543.69075 169.985046,544.398104 C169.312744,544.57416 168.605332,544.669392 167.875813,544.669392 C167.360208,544.669392 166.858257,544.620523 166.371261,544.530302 C167.390117,547.593416 170.343953,549.822616 173.845904,549.885269 C171.107282,551.95345 167.657347,553.186465 163.908322,553.186465 C163.262679,553.186465 162.626138,553.150126 162,553.079328 C165.540962,555.265924 169.745774,556.542169 174.26528,556.542169" id="Twitter"></path>
        </g>
    </g>
</svg>